HIERARCHY
ROOT Root
{
  OFFSET 0.0 0.0 0.0
  CHANNELS 6 Xposition Yposition Zposition Zrotation Yrotation Xrotation
  JOINT Hips
  {
    OFFSET 0.0 100.0 0.0
    CHANNELS 6 Xposition Yposition Zposition Zrotation Yrotation Xrotation
    JOINT Spine1
    {
      OFFSET -0.013727 5.003763 -0.053727
      CHANNELS 3 Zrotation Yrotation Xrotation
      JOINT Spine2
      {
        OFFSET -0.0 7.125301 -0.029825
        CHANNELS 3 Zrotation Yrotation Xrotation
        JOINT Chest
        {
          OFFSET -1e-06 7.550063 -0.815971
          CHANNELS 3 Zrotation Yrotation Xrotation
          JOINT Neck1
          {
            OFFSET -0.181677 26.311295 -0.553348
            CHANNELS 3 Zrotation Yrotation Xrotation
            JOINT Neck2
            {
              OFFSET -3e-06 7.709397 2.302585
              CHANNELS 3 Zrotation Yrotation Xrotation
              JOINT Head
              {
                OFFSET -5e-06 6.128916 1.953709
                CHANNELS 3 Zrotation Yrotation Xrotation
                JOINT HeadEnd
                {
                  OFFSET 0.003598 16.065403 -1.835379
                  CHANNELS 3 Zrotation Yrotation Xrotation
                }
                JOINT Jaw
                {
                  OFFSET 0.002637 0.475592 3.094941
                  CHANNELS 3 Zrotation Yrotation Xrotation
                }
                JOINT LeftEye
                {
                  OFFSET 3.206381 5.380205 7.586883
                  CHANNELS 3 Zrotation Yrotation Xrotation
                }
                JOINT RightEye
                {
                  OFFSET -3.22244 5.361869 7.558234
                  CHANNELS 3 Zrotation Yrotation Xrotation
                }
              }
            }
          }
          JOINT LeftShoulder
          {
            OFFSET 1.621652 23.237164 5.113413
            CHANNELS 3 Zrotation Yrotation Xrotation
            JOINT LeftArm
            {
              OFFSET 14.919846 2e-06 -5.502326
              CHANNELS 3 Zrotation Yrotation Xrotation
              JOINT LeftForeArm
              {
                OFFSET 28.739307 0.0 -0.002588
                CHANNELS 3 Zrotation Yrotation Xrotation
                JOINT LeftHand
                {
                  OFFSET 27.093981 -1e-06 0.002609
                  CHANNELS 3 Zrotation Yrotation Xrotation
                  JOINT LeftHandThumb1
                  {
                    OFFSET 2.276482 -1.392045 3.191413
                    CHANNELS 3 Zrotation Yrotation Xrotation
                    JOINT LeftHandThumb2
                    {
                      OFFSET 4.012836 -1.828127 1.641654
                      CHANNELS 3 Zrotation Yrotation Xrotation
                      JOINT LeftHandThumb3
                      {
                        OFFSET 2.798515 0.0 -3e-06
                        CHANNELS 3 Zrotation Yrotation Xrotation
                        JOINT LeftHandThumbEnd
                        {
                          OFFSET 3.180793 -4e-06 4e-06
                          CHANNELS 3 Zrotation Yrotation Xrotation
                        }
                      }
                    }
                  }
                  JOINT LeftHandIndex1
                  {
                    OFFSET 3.247555 -0.531998 2.296169
                    CHANNELS 3 Zrotation Yrotation Xrotation
                    JOINT LeftHandIndex2
                    {
                      OFFSET 6.364578 0.01206 0.1786
                      CHANNELS 3 Zrotation Yrotation Xrotation
                      JOINT LeftHandIndex3
                      {
                        OFFSET 3.662364 0.0 0.0
                        CHANNELS 3 Zrotation Yrotation Xrotation
                        JOINT LeftHandIndex4
                        {
                          OFFSET 2.329242 4e-06 4e-06
                          CHANNELS 3 Zrotation Yrotation Xrotation
                          JOINT LeftHandIndexEnd
                          {
                            OFFSET 2.759615 -0.180537 -0.113024
                            CHANNELS 3 Zrotation Yrotation Xrotation
                          }
                        }
                      }
                    }
                  }
                  JOINT LeftHandMiddle1
                  {
                    OFFSET 3.163495 0.240981 1.000332
                    CHANNELS 3 Zrotation Yrotation Xrotation
                    JOINT LeftHandMiddle2
                    {
                      OFFSET 6.19078 -0.259278 -1.002548
                      CHANNELS 3 Zrotation Yrotation Xrotation
                      JOINT LeftHandMiddle3
                      {
                        OFFSET 4.35652 -4e-06 -1e-06
                        CHANNELS 3 Zrotation Yrotation Xrotation
                        JOINT LeftHandMiddle4
                        {
                          OFFSET 2.996877 -8e-06 0.0
                          CHANNELS 3 Zrotation Yrotation Xrotation
                          JOINT LeftHandMiddleEnd
                          {
                            OFFSET 2.304287 -0.294569 -0.031741
                            CHANNELS 3 Zrotation Yrotation Xrotation
                          }
                        }
                      }
                    }
                  }
                  JOINT LeftHandRing1
                  {
                    OFFSET 2.882643 -0.053652 -0.322543
                    CHANNELS 3 Zrotation Yrotation Xrotation
                    JOINT LeftHandRing2
                    {
                      OFFSET 5.854541 -0.486202 -1.373841
                      CHANNELS 3 Zrotation Yrotation Xrotation
                      JOINT LeftHandRing3
                      {
                        OFFSET 4.350578 0.0 3e-06
                        CHANNELS 3 Zrotation Yrotation Xrotation
                        JOINT LeftHandRing4
                        {
                          OFFSET 2.651321 7e-06 2e-06
                          CHANNELS 3 Zrotation Yrotation Xrotation
                          JOINT LeftHandRingEnd
                          {
                            OFFSET 1.936105 0.077687 -7.1e-05
                            CHANNELS 3 Zrotation Yrotation Xrotation
                          }
                        }
                      }
                    }
                  }
                  JOINT LeftHandPinky1
                  {
                    OFFSET 2.8655 -0.310005 -1.600378
                    CHANNELS 3 Zrotation Yrotation Xrotation
                    JOINT LeftHandPinky2
                    {
                      OFFSET 5.087849 -1.331141 -1.77123
                      CHANNELS 3 Zrotation Yrotation Xrotation
                      JOINT LeftHandPinky3
                      {
                        OFFSET 3.070974 4e-06 0.0
                        CHANNELS 3 Zrotation Yrotation Xrotation
                        JOINT LeftHandPinky4
                        {
                          OFFSET 1.549672 0.0 1e-06
                          CHANNELS 3 Zrotation Yrotation Xrotation
                          JOINT LeftHandPinkyEnd
                          {
                            OFFSET 1.944893 -0.157802 0.057219
                            CHANNELS 3 Zrotation Yrotation Xrotation
                          }
                        }
                      }
                    }
                  }
                }
              }
            }
          }
          JOINT RightShoulder
          {
            OFFSET -1.380118 23.180309 5.214158
            CHANNELS 3 Zrotation Yrotation Xrotation
            JOINT RightArm
            {
              OFFSET -15.037196 1.2e-05 -5.545604
              CHANNELS 3 Zrotation Yrotation Xrotation
              JOINT RightForeArm
              {
                OFFSET -28.736639 2e-06 -0.002597
                CHANNELS 3 Zrotation Yrotation Xrotation
                JOINT RightHand
                {
                  OFFSET -27.133619 -0.0 0.002613
                  CHANNELS 3 Zrotation Yrotation Xrotation
                  JOINT RightHandThumb1
                  {
                    OFFSET -2.274032 -1.383988 3.163127
                    CHANNELS 3 Zrotation Yrotation Xrotation
                    JOINT RightHandThumb2
                    {
                      OFFSET -4.011429 -1.827466 1.640914
                      CHANNELS 3 Zrotation Yrotation Xrotation
                      JOINT RightHandThumb3
                      {
                        OFFSET -2.794935 -4e-06 -3e-06
                        CHANNELS 3 Zrotation Yrotation Xrotation
                        JOINT RightHandThumbEnd
                        {
                          OFFSET -3.183852 4e-06 1e-06
                          CHANNELS 3 Zrotation Yrotation Xrotation
                        }
                      }
                    }
                  }
                  JOINT RightHandIndex1
                  {
                    OFFSET -3.253266 -0.520057 2.282866
                    CHANNELS 3 Zrotation Yrotation Xrotation
                    JOINT RightHandIndex2
                    {
                      OFFSET -6.341917 0.012471 0.178266
                      CHANNELS 3 Zrotation Yrotation Xrotation
                      JOINT RightHandIndex3
                      {
                        OFFSET -3.654871 -8e-06 -0.0
                        CHANNELS 3 Zrotation Yrotation Xrotation
                        JOINT RightHandIndex4
                        {
                          OFFSET -2.327586 0.0 1e-06
                          CHANNELS 3 Zrotation Yrotation Xrotation
                          JOINT RightHandIndexEnd
                          {
                            OFFSET -2.76179 -0.180656 -0.113078
                            CHANNELS 3 Zrotation Yrotation Xrotation
                          }
                        }
                      }
                    }
                  }
                  JOINT RightHandMiddle1
                  {
                    OFFSET -3.168106 0.246593 1.00103
                    CHANNELS 3 Zrotation Yrotation Xrotation
                    JOINT RightHandMiddle2
                    {
                      OFFSET -6.180828 -0.258836 -1.000895
                      CHANNELS 3 Zrotation Yrotation Xrotation
                      JOINT RightHandMiddle3
                      {
                        OFFSET -4.348901 0.0 -0.0
                        CHANNELS 3 Zrotation Yrotation Xrotation
                        JOINT RightHandMiddle4
                        {
                          OFFSET -3.00024 -4e-06 -2e-06
                          CHANNELS 3 Zrotation Yrotation Xrotation
                          JOINT RightHandMiddleEnd
                          {
                            OFFSET -2.30252 -0.29437 -0.031706
                            CHANNELS 3 Zrotation Yrotation Xrotation
                          }
                        }
                      }
                    }
                  }
                  JOINT RightHandRing1
                  {
                    OFFSET -2.88569 -0.067952 -0.308858
                    CHANNELS 3 Zrotation Yrotation Xrotation
                    JOINT RightHandRing2
                    {
                      OFFSET -5.854198 -0.48613 -1.373731
                      CHANNELS 3 Zrotation Yrotation Xrotation
                      JOINT RightHandRing3
                      {
                        OFFSET -4.33881 -4e-06 -0.0
                        CHANNELS 3 Zrotation Yrotation Xrotation
                        JOINT RightHandRing4
                        {
                          OFFSET -2.654903 -4e-06 4e-06
                          CHANNELS 3 Zrotation Yrotation Xrotation
                          JOINT RightHandRingEnd
                          {
                            OFFSET -1.933568 0.077527 -5.2e-05
                            CHANNELS 3 Zrotation Yrotation Xrotation
                          }
                        }
                      }
                    }
                  }
                  JOINT RightHandPinky1
                  {
                    OFFSET -2.866425 -0.342796 -1.584145
                    CHANNELS 3 Zrotation Yrotation Xrotation
                    JOINT RightHandPinky2
                    {
                      OFFSET -5.091371 -1.332055 -1.772385
                      CHANNELS 3 Zrotation Yrotation Xrotation
                      JOINT RightHandPinky3
                      {
                        OFFSET -3.062664 -4e-06 1e-06
                        CHANNELS 3 Zrotation Yrotation Xrotation
                        JOINT RightHandPinky4
                        {
                          OFFSET -1.546529 4e-06 -2e-06
                          CHANNELS 3 Zrotation Yrotation Xrotation
                          JOINT RightHandPinkyEnd
                          {
                            OFFSET -1.945119 -0.157718 0.057211
                            CHANNELS 3 Zrotation Yrotation Xrotation
                          }
                        }
                      }
                    }
                  }
                }
              }
            }
          }
        }
      }
    }
    JOINT LeftLeg
    {
      OFFSET 10.043214 -8.434526 2.595655
      CHANNELS 3 Zrotation Yrotation Xrotation
      JOINT LeftShin
      {
        OFFSET -1e-06 -43.221752 -0.802913
        CHANNELS 3 Zrotation Yrotation Xrotation
        JOINT LeftFoot
        {
          OFFSET 1e-06 -42.155094 -3.481523
          CHANNELS 3 Zrotation Yrotation Xrotation
          JOINT LeftToeBase
          {
            OFFSET 0.0 -5.059472 13.231529
            CHANNELS 3 Zrotation Yrotation Xrotation
            JOINT LeftToeEnd
            {
              OFFSET -0.009607 -1.647619 6.513017
              CHANNELS 3 Zrotation Yrotation Xrotation
            }
          }
        }
      }
    }
    JOINT RightLeg
    {
      OFFSET -10.047278 -8.29526 2.620317
      CHANNELS 3 Zrotation Yrotation Xrotation
      JOINT RightShin
      {
        OFFSET 1e-06 -43.362206 -0.805556
        CHANNELS 3 Zrotation Yrotation Xrotation
        JOINT RightFoot
        {
          OFFSET 2e-06 -42.117393 -3.478398
          CHANNELS 3 Zrotation Yrotation Xrotation
          JOINT RightToeBase
          {
            OFFSET -0.0 -5.079609 13.284196
            CHANNELS 3 Zrotation Yrotation Xrotation
            JOINT RightToeEnd
            {
              OFFSET 0.009532 -1.634378 6.460591
              CHANNELS 3 Zrotation Yrotation Xrotation
            }
          }
        }
      }
    }
  }
}
MOTION
Frames: 4
Frame Time: 0.03333333333333333
0.0 0.0 0.0 0.0 -0.0 0.0 208.530426 91.979317 59.345604 -1.602022 -38.647385 8.357632 0.472421 0.28381 1.87603 -0.665245 3.960515 -4.523561 1.780902 -0.357624 10.313084 3.172467 1.887726 2.677645 -1.69342 -1.538493 -3.728481 3.46823 -5.071911 -5.440312 7.7e-05 -2.4e-05 6e-06 -0.003534 0.118441 -0.018796 0.687331 -3.619726 -10.646547 -0.68859 3.809984 -10.664382 -7.930907 -2.009104 13.152945 -60.060059 -20.102356 24.575405 -1.389264 -42.619617 0.703666 14.220709 -14.061801 -2.566536 -5.882111 9.861292 0.702591 -10.93688 -0.360575 7.156215 0.0 8.774833 -0.0 -27.900465 27.386448 7.487775 -1.844034 2.498507 -2.507279 -10.16361 4.67895 4.621114 -20.97604 -2e-06 4e-06 -21.226307 2.451701 -3.594003 0.0 -6e-06 -0.0 -1.362683 2.240801 -0.746325 -21.33493 0.584911 3.008327 -13.821225 -3e-06 3e-06 -23.88719 -0.24908 -0.839482 -91.866867 2.367863 -0.415275 -0.294024 1.679688 0.833257 -14.218222 0.093215 1.300584 -34.212078 -0.287563 0.967175 -20.033232 0.964541 1.212846 1e-06 1e-06 -0.0 -3.440389 0.788233 0.501656 -15.9282 -3.167312 2.999712 -6.33883 -2e-06 2e-06 -18.123459 3.648187 -4.905672 -4e-06 1e-06 -2e-06 -3.991823 19.302078 7.622367 73.393448 25.567774 10.112062 -2.787748 49.424416 -1.54947 -1.853409 -2.573683 -23.225424 2.243543 -5.255038 -3.180159 14.282894 -0.826596 6.952503 -1e-06 -12.690606 -0.0 27.326801 -24.718483 2.071624 1.665666 -1.955926 -2.8783 4.7278 -4.170588 4.993926 11.020528 3e-06 -1e-06 12.109055 -3.735716 -2.866785 -0.0 -2e-06 -1e-06 1.291986 -1.92855 -1.49809 14.800131 0.567468 3.865608 14.242573 -1.341738 -6.660661 19.631969 0.143925 -0.648246 85.609085 -1.439236 -11.675951 0.35303 -1.51115 -0.03194 20.222797 3.684308 2.316629 18.787279 5e-06 -2e-06 10.751627 -0.479869 1.397906 -2e-06 -0.0 0.0 3.273808 0.305947 -0.580111 21.486818 11.830376 2.266134 8.16293 3e-06 -0.0 18.399088 -3.798985 -4.940578 2e-06 1e-06 -1e-06 7.177369 4.570819 -6.985809 0.21487 -1.118773 62.613056 -6.036176 19.88862 -9.911509 2.202026 -2.204504 -2.897025 -0.0 -0.0 2e-06 5.058245 7.93375 3.64305 -0.177178 -0.657215 27.927494 -10.588553 -11.36847 -5.92366 -1.285904 0.564543 -9.452896 -0.0 0.0 -0.0 
0.0 0.0 0.0 0.0 -0.0 0.0 202.956467 93.167595 68.277969 -1.061941 -37.418705 8.21487 0.217127 0.406254 2.127152 -0.853114 4.529347 -4.379284 0.219512 0.129267 10.48235 1.394298 2.938366 1.051471 -2.018972 -2.074649 -3.712721 3.837979 -6.036886 -5.420439 7.7e-05 -2.1e-05 6e-06 -0.002723 0.256103 -0.043466 0.712128 -3.479656 -10.649811 -0.713245 3.942815 -10.689737 -9.698856 -2.49228 13.178017 -58.204102 -22.470999 28.164026 -0.668504 -37.26392 0.594393 9.674439 -12.662385 -0.083844 -5.882107 9.861287 0.702591 -10.936875 -0.360576 7.156209 2e-06 8.774828 -1e-06 -27.639009 27.000597 8.288352 -1.844034 2.498505 -2.50728 -10.163605 4.678945 4.621111 -20.976034 -6e-06 2e-06 -21.226295 2.451694 -3.594 1e-06 -5e-06 -1e-06 -1.362683 2.240799 -0.746324 -21.334925 0.584908 3.008326 -13.82122 -5e-06 3e-06 -23.887182 -0.249081 -0.839481 -91.841743 3.390504 0.356712 -0.294026 1.679687 0.833256 -14.218215 0.093213 1.300581 -34.212067 -0.287568 0.967171 -20.033222 0.964535 1.212845 2e-06 1e-06 -1e-06 -3.44039 0.788234 0.501656 -15.928194 -3.16731 2.999708 -6.338829 0.0 1e-06 -18.123457 3.648184 -4.905672 -4e-06 0.0 -2e-06 -3.925072 19.294813 8.775985 75.743851 22.342714 8.577792 -3.643567 50.415333 -2.002647 -0.855633 -1.463268 -20.2029 2.243543 -5.255039 -3.18016 14.282896 -0.826593 6.952504 -2e-06 -12.690609 0.0 26.95923 -24.809093 2.767275 1.665668 -1.955921 -2.8783 4.727801 -4.170588 4.993926 11.020531 3e-06 -1e-06 12.109059 -3.735716 -2.866787 0.0 -2e-06 -1e-06 1.291987 -1.92855 -1.49809 14.800136 0.567466 3.865607 14.24258 -1.341735 -6.660662 19.631975 0.143926 -0.648247 85.883934 -0.08766 -10.199172 0.353029 -1.51115 -0.03194 20.222801 3.684312 2.316629 18.787281 5e-06 -3e-06 10.751634 -0.479869 1.397905 -1e-06 -1e-06 -1e-06 3.273809 0.305949 -0.580111 21.486824 11.830381 2.266132 8.16293 2e-06 -1e-06 18.399092 -3.798986 -4.94058 3e-06 1e-06 -1e-06 5.31423 -0.656644 -15.37425 0.188417 -0.962646 65.23481 -3.427642 23.338333 -12.860109 2.073579 -2.187526 -2.101235 0.0 -1e-06 2e-06 5.270394 8.859874 7.372742 0.131082 -0.978067 26.462399 -10.828428 -7.318785 11.451681 -1.320065 0.667516 -16.367687 0.0 -0.0 -4e-06 
0.0 0.0 0.0 0.0 -0.0 0.0 196.760483 93.674973 76.946625 0.165304 -35.221542 6.72944 -0.459111 0.388726 3.108989 -1.065456 4.797167 -3.903049 -1.311911 -0.166272 11.196103 -0.324311 3.453533 -0.103238 -2.359445 -2.918818 -3.653913 4.323601 -7.407621 -6.048967 7.7e-05 -2.2e-05 6e-06 -0.010574 0.378354 -0.100558 0.751364 -3.333837 -10.640305 -0.769281 4.03828 -10.699037 -11.112676 -4.12574 14.232578 -55.319099 -25.549385 30.108532 0.121524 -35.221298 0.438906 6.576693 -12.343395 0.200376 -5.882111 9.861292 0.702591 -10.936877 -0.360574 7.156208 0.0 8.774831 0.0 -27.192631 25.614857 8.655718 -1.844033 2.498505 -2.507279 -10.163605 4.678947 4.621111 -20.976038 -3e-06 1e-06 -21.226301 2.4517 -3.594003 1e-06 -7e-06 -0.0 -1.362682 2.2408 -0.746323 -21.334929 0.584911 3.008323 -13.821222 -3e-06 1e-06 -23.887186 -0.249079 -0.839486 -91.241943 3.017802 1.044371 -0.294025 1.679689 0.833256 -14.218216 0.093217 1.30058 -34.212067 -0.287564 0.967167 -20.033224 0.964538 1.212842 1e-06 1e-06 -0.0 -3.440391 0.788235 0.501656 -15.928196 -3.167311 2.999708 -6.33883 -2e-06 0.0 -18.123459 3.648186 -4.905674 -3e-06 0.0 -2e-06 -3.513655 18.430777 10.403337 76.694435 19.019945 8.105372 -3.043361 51.535965 -1.722681 2.29458 -0.881142 -18.120237 2.243544 -5.25504 -3.180161 14.2829 -0.826595 6.952507 -3e-06 -12.690613 1e-06 26.095478 -25.472956 3.965688 1.665668 -1.955924 -2.878302 4.727802 -4.17059 4.993927 11.020535 1e-06 -3e-06 12.10906 -3.735719 -2.866788 -0.0 0.0 1e-06 1.291987 -1.92855 -1.498091 14.800139 0.567468 3.865609 14.242582 -1.341737 -6.660665 19.631985 0.143928 -0.648246 84.890442 -1.541678 -9.397238 0.35303 -1.51115 -0.03194 20.222805 3.684311 2.31663 18.787289 6e-06 -2e-06 10.751637 -0.479867 1.397906 -1e-06 -0.0 0.0 3.273809 0.305947 -0.580112 21.486828 11.830384 2.266131 8.162931 3e-06 -1e-06 18.399096 -3.798987 -4.940581 3e-06 -1e-06 -1e-06 3.029207 -5.095789 -20.914633 0.261958 -0.778372 60.521431 -0.191956 26.645006 -16.577738 2.077344 -2.212391 -2.200058 -0.0 0.0 1e-06 2.650015 3.177411 4.995455 0.487268 -1.060212 36.343941 -8.517807 -3.451922 21.729202 -1.224783 0.78239 -10.151266 -2e-06 -0.0 -1e-06 
0.0 0.0 0.0 0.0 -0.0 0.0 190.178619 93.043777 85.971436 0.00244 -32.690804 5.460146 -0.868487 0.040304 4.217383 -1.053443 4.342321 -3.532589 -1.879335 -1.002837 12.270135 -1.456453 3.513952 -0.651598 -2.362443 -3.758616 -3.556413 4.375035 -8.016757 -6.075253 7.7e-05 -2e-05 6e-06 -0.033064 0.372687 -0.109427 0.743352 -3.33472 -10.658424 -0.805399 4.026619 -10.717516 -12.586036 -5.883128 14.93295 -52.03833 -28.019066 30.844564 1.129505 -36.433128 -0.173741 5.334901 -12.241134 -0.334853 -5.882107 9.861288 0.702591 -10.936873 -0.360574 7.156208 1e-06 8.77483 -1e-06 -26.696007 24.275856 8.341736 -1.844032 2.498506 -2.507278 -10.163601 4.678945 4.62111 -20.976027 -4e-06 1e-06 -21.22629 2.451695 -3.594001 -1e-06 -6e-06 -0.0 -1.362682 2.240801 -0.746323 -21.334917 0.584909 3.008322 -13.821215 -3e-06 2e-06 -23.887175 -0.24908 -0.839483 -89.525002 1.384389 1.317661 -0.294025 1.679686 0.833256 -14.218212 0.093215 1.30058 -34.212055 -0.287567 0.96717 -20.033216 0.964536 1.212844 -1e-06 1e-06 -1e-06 -3.440389 0.788235 0.501656 -15.928189 -3.16731 2.999708 -6.338827 -3e-06 1e-06 -18.123447 3.648183 -4.905671 -4e-06 0.0 -2e-06 -1.483736 16.825306 12.380289 74.860405 16.301609 9.515815 -1.668566 48.031281 -0.784075 5.927629 -0.485478 -15.000134 2.243545 -5.255041 -3.180162 14.282907 -0.826598 6.952509 -2e-06 -12.690618 2e-06 24.522715 -25.611137 5.532156 1.665669 -1.955925 -2.878304 4.727804 -4.170593 4.993929 11.020542 2e-06 -3e-06 12.109068 -3.735719 -2.866789 1e-06 -0.0 -0.0 1.291987 -1.928551 -1.498091 14.800146 0.567468 3.865611 14.24259 -1.341737 -6.660667 19.631992 0.143928 -0.648248 82.76825 -4.664216 -7.654923 0.353029 -1.511152 -0.03194 20.222818 3.684314 2.31663 18.787298 7e-06 -3e-06 10.751642 -0.479868 1.397905 -1e-06 0.0 -0.0 3.273811 0.305948 -0.580112 21.486841 11.830386 2.266132 8.162937 2e-06 -2e-06 18.399109 -3.798987 -4.940582 2e-06 -0.0 -0.0 2.196509 -6.29703 -22.661684 0.258551 -0.620254 52.459602 4.178195 27.816954 -18.930216 2.036127 -2.163462 -2.203874 1e-06 0.0 2e-06 0.396426 -4.989865 -0.435157 0.426923 -0.74647 53.573959 -5.777476 -4.537109 20.513475 -1.103642 0.910362 -5.119459 -0.0 -0.0 -1e-06 
